<?xml version="1.0" standalone="no"?>
<!DOCTYPE svg PUBLIC "-//W3C//DTD SVG 20010904//EN"
 "http://www.w3.org/TR/2001/REC-SVG-20010904/DTD/svg10.dtd">
<svg version="1.0" xmlns="http://www.w3.org/2000/svg"
 width="1366.000000pt" height="768.000000pt" viewBox="0 0 1366.000000 768.000000"
 preserveAspectRatio="xMidYMid meet">

<g transform="translate(0.000000,768.000000) scale(0.100000,-0.100000)"
cx="13.5" cy="8.8" r="8.8" fill="#0AA9E7" stroke="none">
<path d="M6556 6470 c-98 -25 -208 -107 -268 -200 -127 -198 -66 -472 136
-602 78 -50 143 -69 241 -69 217 0 394 147 436 362 7 35 14 65 15 67 6 10 86
-43 118 -79 42 -46 66 -94 93 -185 15 -54 18 -153 24 -1094 4 -717 10 -1050
17 -1084 25 -104 34 -133 59 -196 78 -192 236 -334 431 -386 138 -36 366 -35
507 3 80 21 212 84 252 119 l33 29 -44 175 c-24 97 -50 217 -57 267 l-13 92
-35 -31 c-74 -65 -179 -90 -285 -68 -74 15 -132 69 -161 150 -19 54 -20 88
-23 1368 -1 721 -5 1312 -8 1312 -3 0 -41 -21 -84 -46 -224 -129 -572 -263
-786 -303 l-43 -8 -16 73 c-29 130 -125 247 -252 306 -55 26 -80 31 -157 34
-50 2 -108 -1 -130 -6z"/>
<path d="M916 6203 c72 -141 69 -74 69 -1558 0 -1225 -1 -1336 -17 -1408 -19
-86 -53 -170 -74 -188 -8 -6 -14 -15 -14 -20 0 -12 1373 -11 1566 1 173 11
314 36 441 81 186 66 303 139 424 266 172 180 250 394 235 649 -8 141 -34 245
-92 364 -101 203 -298 339 -524 359 l-65 6 95 47 c198 97 337 274 385 492 14
61 16 106 12 200 -8 210 -68 346 -217 497 -124 126 -266 202 -469 252 -83 20
-113 21 -938 24 l-852 4 35 -68z m1479 -584 c129 -40 209 -153 208 -295 -1
-112 -65 -209 -175 -264 l-61 -30 -314 0 -313 0 0 305 0 305 294 0 c270 0 299
-2 361 -21z m135 -1216 c133 -49 191 -98 236 -198 52 -112 42 -274 -20 -374
-44 -69 -105 -113 -215 -154 -52 -20 -80 -21 -423 -25 l-368 -3 0 391 0 391
368 -3 c342 -4 371 -5 422 -25z"/>
<path d="M4642 5404 c-478 -80 -818 -446 -898 -969 -21 -134 -14 -421 14 -550
65 -301 209 -538 427 -702 113 -86 284 -158 442 -189 118 -23 356 -23 476 0
224 43 413 143 564 297 84 86 110 119 165 212 112 191 168 417 169 677 1 309
-70 571 -211 781 -53 79 -196 222 -272 272 -135 89 -281 146 -439 172 -115 18
-324 18 -437 -1z m382 -644 c117 -45 211 -172 257 -345 28 -105 30 -315 5
-425 -35 -157 -125 -289 -232 -343 -209 -105 -449 -25 -551 184 -57 116 -68
175 -68 369 0 167 1 179 29 265 52 159 146 264 271 305 80 27 205 22 289 -10z"/>
<path d="M9751 5410 c-390 -54 -687 -262 -851 -595 -104 -210 -148 -426 -136
-670 17 -346 107 -602 286 -812 282 -331 836 -454 1277 -284 163 63 332 192
438 333 l43 58 -85 82 c-94 92 -218 234 -278 318 -21 30 -40 57 -42 59 -2 3
-11 -6 -20 -20 -37 -53 -130 -142 -182 -174 -88 -53 -156 -68 -280 -63 -123 5
-188 26 -266 86 -82 63 -143 157 -170 265 l-6 24 293 6 c372 8 477 25 653 107
193 89 312 228 361 420 24 94 16 251 -19 348 -83 236 -294 421 -562 493 -91
24 -340 35 -454 19z m285 -619 c77 -35 109 -103 102 -213 -12 -160 -132 -307
-337 -412 -101 -52 -317 -124 -330 -110 -3 3 -6 65 -6 137 0 190 38 310 139
439 48 60 154 136 226 161 63 22 156 21 206 -2z"/>
<path d="M12270 5404 c-201 -54 -407 -298 -477 -569 -10 -36 -21 -65 -25 -65
-5 0 -8 144 -8 320 0 176 -2 320 -5 320 -3 0 -49 -25 -102 -54 -267 -149 -640
-284 -835 -303 -74 -6 -73 -16 4 -27 102 -15 188 -105 231 -240 22 -71 22 -73
22 -796 0 -672 -1 -730 -18 -789 -20 -70 -50 -135 -75 -163 -14 -17 7 -18 437
-18 l451 0 -30 53 c-16 29 -40 93 -52 142 -23 89 -23 96 -23 735 l0 645 23 47
c13 27 42 64 65 83 147 126 524 98 677 -51 l36 -34 12 72 c19 112 59 285 103
445 47 169 47 166 -56 213 -112 51 -244 64 -355 34z"/>
<path d="M6953 5395 c-35 -24 -289 -149 -394 -194 -181 -76 -389 -136 -512
-148 -75 -7 -73 -11 18 -32 105 -25 174 -102 217 -241 l23 -75 0 -710 c0 -706
0 -711 -23 -795 -12 -47 -35 -106 -52 -132 l-29 -48 450 0 450 0 -20 28 c-25
35 -46 88 -68 172 -15 59 -17 161 -20 1128 -2 584 -7 1062 -11 1062 -4 0 -17
-7 -29 -15z"/>
<path d="M7330 2079 c-39 -17 -70 -19 -379 -19 -272 1 -341 3 -361 15 -32 18
-74 19 -89 1 -15 -18 -73 -283 -69 -316 2 -19 10 -26 30 -28 25 -3 30 3 63 75
75 162 102 183 244 183 l91 0 0 -508 c0 -570 3 -546 -71 -558 -38 -6 -69 -26
-69 -43 0 -27 35 -31 240 -29 189 3 214 5 224 20 14 24 -1 37 -55 49 -24 6
-49 15 -56 21 -10 8 -13 118 -13 530 l0 520 99 -4 c128 -4 139 -12 211 -152
49 -96 58 -106 80 -104 36 4 37 37 5 182 -41 190 -48 199 -125 165z"/>
<path d="M2480 2083 c-172 -29 -328 -149 -410 -316 -147 -300 -61 -695 187
-853 263 -169 671 -95 779 141 50 109 9 168 -49 70 -60 -104 -136 -158 -253
-182 -228 -46 -419 74 -500 314 -36 104 -45 284 -20 395 36 160 122 281 238
333 81 37 193 38 283 4 75 -28 175 -125 223 -215 18 -34 39 -64 47 -68 19 -7
42 2 49 19 6 18 -90 325 -107 343 -17 17 -41 7 -57 -24 -17 -30 -47 -31 -101
-3 -75 38 -217 57 -309 42z"/>
<path d="M3845 2075 c-223 -46 -402 -226 -450 -452 -19 -87 -19 -239 0 -328
45 -215 203 -389 410 -451 83 -25 277 -25 360 0 271 81 425 301 425 606 0 369
-229 620 -580 635 -60 3 -121 -1 -165 -10z m212 -87 c44 -16 75 -38 129 -92
103 -103 161 -224 189 -401 45 -278 -24 -484 -192 -567 -58 -28 -77 -33 -143
-33 -96 1 -182 38 -255 113 -129 132 -197 325 -197 555 1 217 67 352 207 419
77 36 175 39 262 6z"/>
<path d="M9715 2084 c-192 -30 -356 -146 -436 -309 -54 -111 -70 -180 -71
-310 -1 -201 55 -350 176 -471 125 -124 280 -181 466 -171 268 16 464 167 542
417 20 64 23 96 22 215 0 125 -3 149 -27 222 -65 195 -202 329 -398 388 -54
16 -218 27 -274 19z m171 -95 c72 -27 176 -128 226 -219 124 -224 138 -550 33
-720 -102 -164 -311 -204 -474 -92 -213 145 -323 563 -220 838 28 75 122 173
189 197 67 23 177 21 246 -4z"/>
<path d="M4957 2053 c-16 -15 -4 -39 58 -116 l65 -81 0 -442 c0 -501 7 -463
-85 -489 -55 -16 -74 -37 -54 -61 9 -11 49 -14 178 -14 91 0 172 4 179 9 29
18 8 46 -53 67 -40 14 -64 29 -72 45 -9 18 -13 121 -13 397 0 204 3 372 8 371
13 -1 637 -816 647 -845 5 -16 14 -32 20 -36 5 -4 56 -8 111 -8 143 0 151 14
65 119 l-36 44 -3 457 c-3 522 -9 487 88 518 47 15 55 20 55 42 l0 25 -176 3
c-141 2 -178 0 -188 -12 -19 -23 -3 -42 54 -60 91 -28 85 5 85 -449 0 -343 -2
-399 -14 -387 -8 8 -165 211 -351 450 -185 239 -344 441 -353 448 -17 13 -203
18 -215 5z"/>
<path d="M7820 2045 c-13 -15 -12 -20 9 -36 13 -11 32 -19 43 -19 22 0 60 -18
70 -34 4 -6 8 -229 8 -496 0 -545 3 -525 -71 -536 -38 -6 -69 -26 -69 -43 0
-27 35 -31 251 -29 l224 3 3 27 c3 29 3 29 -77 42 -61 11 -61 10 -61 218 0
177 1 190 18 183 33 -13 115 -25 171 -25 l56 -1 90 -146 c122 -199 129 -212
115 -228 -6 -7 -24 -15 -40 -19 -33 -6 -42 -39 -14 -50 9 -3 98 -6 199 -6 148
0 185 3 195 15 19 23 9 35 -50 58 -53 22 -55 23 -177 212 -67 105 -123 193
-123 197 0 4 21 16 48 28 132 59 208 206 181 355 -27 154 -138 259 -331 316
-66 20 -102 22 -363 26 -266 5 -292 3 -305 -12z m574 -75 c114 -43 193 -133
217 -248 29 -140 -25 -267 -136 -324 -50 -26 -186 -35 -267 -19 l-58 12 0 306
0 306 94 -6 c57 -4 115 -15 150 -27z"/>
<path d="M10787 2054 c-13 -13 -7 -43 11 -52 9 -5 34 -12 54 -16 22 -4 42 -15
48 -26 6 -12 10 -197 10 -509 0 -536 2 -514 -58 -527 -50 -10 -72 -23 -72 -43
0 -10 7 -22 16 -25 9 -3 169 -6 357 -6 278 -1 347 -3 367 -15 29 -17 59 -19
79 -6 16 10 102 346 94 367 -5 15 -37 24 -51 15 -6 -3 -30 -51 -53 -106 -48
-110 -96 -168 -149 -178 -18 -4 -89 -7 -159 -7 -98 0 -132 3 -149 16 l-22 15
0 504 0 504 22 15 c12 9 34 16 48 16 35 0 63 22 58 46 -3 18 -15 19 -224 22
-121 1 -223 -1 -227 -4z"/>
</g>
</svg>
